<svg width="16" height="26" viewBox="0 0 16 26" fill="none" xmlns="http://www.w3.org/2000/svg">
<path fill-rule="evenodd" clip-rule="evenodd" d="M4.76185 7.70357C6.46819 7.29686 7.738 5.75007 7.738 3.90402C7.738 1.74788 6.00579 0 3.869 0C1.7322 0 0 1.74788 0 3.90402C0 5.75007 1.26981 7.29686 2.97615 7.70357V17.7182C2.97615 20.2061 4.97485 22.2229 7.44038 22.2229H12.2788L10.8269 23.688C10.4782 24.0399 10.4782 24.6102 10.8269 24.9621C11.1756 25.3139 11.7408 25.3139 12.0895 24.9621L15.0656 21.959C15.4143 21.6071 15.4143 21.0368 15.0656 20.6849L12.0895 17.6819C11.7408 17.33 11.1756 17.33 10.8269 17.6819C10.4782 18.0337 10.4782 18.604 10.8269 18.9559L12.2788 20.421H7.44038C5.96107 20.421 4.76185 19.2109 4.76185 17.7182V7.70357ZM3.869 6.00619C5.01958 6.00619 5.95231 5.06502 5.95231 3.90402C5.95231 2.74303 5.01958 1.80186 3.869 1.80186C2.71842 1.80186 1.78569 2.74303 1.78569 3.90402C1.78569 5.06502 2.71842 6.00619 3.869 6.00619Z" fill="#A9A9A9"/>
</svg>
