<svg width="17" height="26" viewBox="0 0 17 26" fill="none" xmlns="http://www.w3.org/2000/svg">
<path fill-rule="evenodd" clip-rule="evenodd" d="M5.36331 1.53798C5.71199 1.18615 5.71199 0.615703 5.36331 0.263873C5.01462 -0.0879576 4.44939 -0.0879576 4.1007 0.263873L1.12455 3.26697C0.775866 3.6188 0.775866 4.18924 1.12455 4.54107L4.1007 7.54416C4.44939 7.89599 5.01462 7.89599 5.36331 7.54416C5.71199 7.19233 5.71199 6.62189 5.36331 6.27006L3.91142 4.80494H8.74981C10.2291 4.80494 11.4284 6.01502 11.4284 7.50773V17.5224C9.72206 17.9291 8.4522 19.4759 8.4522 21.322C8.4522 23.4781 10.1844 25.226 12.3212 25.226C14.458 25.226 16.1902 23.4781 16.1902 21.322C16.1902 19.4759 14.9203 17.9291 13.214 17.5224V7.50773C13.214 5.01988 11.2154 3.00309 8.74981 3.00309H3.91142L5.36331 1.53798ZM10.2379 21.322C10.2379 20.161 11.1706 19.2198 12.3212 19.2198C13.4718 19.2198 14.4045 20.161 14.4045 21.322C14.4045 22.483 13.4718 23.4241 12.3212 23.4241C11.1706 23.4241 10.2379 22.483 10.2379 21.322Z" fill="#A9A9A9"/>
</svg>
