<svg width="26" height="33" viewBox="0 0 26 33" fill="none" xmlns="http://www.w3.org/2000/svg">
<path d="M25.6654 0.321045H2.25934C1.00911 0.321045 0 1.28032 0 2.46881V16.6118C0 17.7833 1.00018 18.7341 2.23255 18.7341H8.83196V26.2725H0V32.0621H12.6898C13.9222 32.0621 14.9313 31.1113 14.9313 29.9313V15.0668C14.9313 13.8952 13.9311 12.9445 12.6987 12.9445H6.09039V6.11067H25.6654V0.321045Z" fill="#118B91"/>
<path d="M25.6654 12.9446H22.1023V32.0537H25.6654V12.9446Z" fill="#404956"/>
<path d="M2.35757 19.2519C0.741206 19.2519 0 17.9446 0 17.9446V25.7631H8.30508V19.2434H2.35757V19.2519Z" fill="#404956"/>
<path d="M6.61743 6.62842V12.418H13.2168C14.4581 12.418 15.4673 13.3773 15.4673 14.5573V29.7699C15.2887 31.6206 14.0384 32.062 14.0384 32.062H21.5576V12.418H25.6566V6.62842H6.61743Z" fill="#F16A4F"/>
</svg>
