<svg width="18" height="18" viewBox="0 0 18 18" fill="none" xmlns="http://www.w3.org/2000/svg">
<path d="M17.6839 7.07537L15.4316 5.23978V2.30417C15.4316 1.9736 15.1627 1.70461 14.8321 1.70461H13.4149C13.0844 1.70461 12.8154 1.9736 12.8154 2.30417V3.10742L9.80597 0.654728C9.58828 0.477367 9.30136 0.379639 8.99809 0.379639C8.69602 0.379639 8.41047 0.476767 8.19398 0.653202L0.316135 7.07531C-0.0418022 7.36697 -0.0203271 7.62102 0.0243129 7.74649C0.0688439 7.87169 0.212248 8.08175 0.672056 8.08175H1.75077V16.5272C1.75077 17.1299 2.2398 17.6202 2.84088 17.6202H6.24748C6.84349 17.6202 7.31033 17.1401 7.31033 16.5272V13.0639C7.31033 12.767 7.58313 12.4968 7.88264 12.4968H10.1719C10.4574 12.4968 10.6897 12.7512 10.6897 13.0639V16.5272C10.6897 17.1197 11.2014 17.6202 11.807 17.6202H15.1591C15.7602 17.6202 16.2492 17.1299 16.2492 16.5272V8.08175H17.3279C17.7878 8.08175 17.9311 7.87169 17.9757 7.74649C18.0203 7.62102 18.0418 7.36697 17.6839 7.07537Z" fill="#404956"/>
</svg>
