<svg width="14" height="14" viewBox="0 0 14 14" fill="none" xmlns="http://www.w3.org/2000/svg">
<path d="M6.84027 13.192C8.69324 13.192 10.2975 12.5602 11.6088 11.3138C12.9196 10.0675 13.5843 8.54264 13.5843 6.78098C13.5843 5.01993 12.9198 3.49485 11.6085 2.24818C10.2973 1.00212 8.69302 0.370361 6.84027 0.370361C4.98709 0.370361 3.38299 1.00212 2.07199 2.24838C0.760986 3.49464 0.0961914 5.01973 0.0961914 6.78098C0.0961914 8.54264 0.760986 10.0677 2.07199 11.314C3.38342 12.56 4.98773 13.192 6.84027 13.192ZM3.23239 3.35127C4.23834 2.395 5.41839 1.93017 6.84027 1.93017C8.26193 1.93017 9.4422 2.395 10.4484 3.35127C11.4543 4.30775 11.9435 5.42973 11.9435 6.78098C11.9435 8.13264 11.4543 9.25441 10.4484 10.2109C9.4422 11.1674 8.26193 11.6322 6.84027 11.6322C5.41882 11.6322 4.23877 11.1672 3.23239 10.2109C2.22623 9.25462 1.73703 8.13264 1.73703 6.78098C1.73703 5.42973 2.22623 4.30775 3.23239 3.35127Z" fill="#FFFBFB"/>
</svg>
