<svg width="24" height="14" viewBox="0 0 24 14" fill="none" xmlns="http://www.w3.org/2000/svg">
<path d="M23.6408 7.83771C23.603 7.31906 23.5265 6.7533 23.414 6.15586C23.3003 5.55395 23.154 4.98494 22.9788 4.46487C22.7977 3.92733 22.5518 3.3965 22.2474 2.8878C21.9318 2.35981 21.561 1.90005 21.1449 1.52173C20.7097 1.12594 20.1769 0.80772 19.5608 0.575607C18.9469 0.344712 18.2665 0.227742 17.5387 0.227742C17.2529 0.227742 16.9764 0.339229 16.4426 0.66963C16.114 0.873312 15.7297 1.10888 15.3008 1.36942C14.934 1.59158 14.4371 1.79973 13.8234 1.98818C13.2246 2.17237 12.6166 2.26579 12.0163 2.26579C11.4165 2.26579 10.8085 2.17237 10.2093 1.98818C9.59619 1.79994 9.09909 1.59179 8.73294 1.36962C8.30804 1.11152 7.92352 0.875952 7.59006 0.669427C7.05664 0.339026 6.78021 0.227539 6.49438 0.227539C5.76636 0.227539 5.08618 0.344712 4.47244 0.57581C3.85678 0.807516 3.32379 1.12573 2.88821 1.52193C2.47208 1.90046 2.10123 2.36001 1.78592 2.8878C1.48193 3.3965 1.23584 3.92713 1.05469 4.46507C0.87973 4.98514 0.733398 5.55395 0.619751 6.15586C0.506958 6.75249 0.430695 7.31845 0.392883 7.83832C0.355713 8.34661 0.336914 8.87562 0.336914 9.41011C0.336914 10.7995 0.801544 11.9244 1.71777 12.7539C2.62268 13.5725 3.81982 13.9876 5.27609 13.9876H18.7583C20.2141 13.9876 21.4112 13.5725 22.3164 12.7539C23.2328 11.925 23.6974 10.7997 23.6974 9.40991C23.6972 8.87359 23.6782 8.34458 23.6408 7.83771V7.83771ZM21.185 11.6238C20.5871 12.1648 19.7933 12.4278 18.7581 12.4278H5.27609C4.24066 12.4278 3.44684 12.1648 2.84912 11.624C2.26273 11.0934 1.97775 10.369 1.97775 9.41011C1.97775 8.91136 1.99506 8.41891 2.02966 7.94615C2.06342 7.48233 2.13242 6.97282 2.23474 6.43143C2.33578 5.89674 2.46439 5.39494 2.61734 4.94067C2.7641 4.50508 2.96426 4.07375 3.21249 3.65826C3.4494 3.26227 3.72198 2.92253 4.02277 2.64878C4.30411 2.39271 4.65872 2.18314 5.07657 2.02596C5.46301 1.88056 5.89731 1.80095 6.36877 1.78897C6.42624 1.81801 6.52856 1.87345 6.69433 1.9762C7.03164 2.18517 7.42044 2.42357 7.85025 2.68452C8.33475 2.97817 8.95895 3.24338 9.70471 3.47224C10.4671 3.70659 11.2447 3.82559 12.0165 3.82559C12.7884 3.82559 13.5662 3.70659 14.3282 3.47245C15.0746 3.24318 15.6985 2.97817 16.1837 2.68412C16.6235 2.41687 17.0014 2.18537 17.3387 1.9762C17.5045 1.87365 17.6068 1.81801 17.6643 1.78897C18.136 1.80095 18.5703 1.88056 18.9569 2.02596C19.3746 2.18314 19.7292 2.39291 20.0105 2.64878C20.3113 2.92232 20.5839 3.26206 20.8208 3.65846C21.0692 4.07375 21.2696 4.50528 21.4162 4.94046C21.5693 5.39535 21.6981 5.89694 21.799 6.43123C21.9011 6.97364 21.9703 7.48335 22.0041 7.94636V7.94676C22.0389 8.41769 22.0564 8.90994 22.0566 9.41011C22.0564 10.3692 21.7714 11.0934 21.185 11.6238V11.6238Z" fill="#FFFBFB"/>
</svg>
