<svg width="32" height="55" viewBox="0 0 32 55" fill="none" xmlns="http://www.w3.org/2000/svg">
<path d="M30.545 27.2516V19.655C30.545 17.0791 29.3621 14.9842 27.8675 14.7811L23.6907 2.4588C23.3037 1.31917 22.6787 0.504629 21.9308 0.166401C21.1865 -0.169525 20.4081 0.0069022 19.7419 0.661824L5.42377 14.7414H2.90907C1.30471 14.7414 0 16.9451 0 19.655V49.1363C0 51.8462 1.30464 54.0499 2.90907 54.0499H27.636C29.2403 54.0499 30.545 51.8463 30.545 49.1363V41.5397C31.3897 41.0309 31.9995 39.6802 31.9995 38.0808V30.7105C31.9995 29.1112 31.3897 27.7604 30.545 27.2516ZM26.1774 14.7414H19.8385L24.5927 10.0664L26.1774 14.7414ZM23.8701 7.93438L16.9477 14.7414H14.0764L23.1521 5.81644L23.8701 7.93438ZM20.4741 2.78505C20.803 2.45995 21.1871 2.37358 21.5544 2.53918C21.9258 2.70709 22.2355 3.11257 22.428 3.67997L22.4295 3.68446L11.1858 14.7414H8.31464L20.4741 2.78505ZM29.0905 49.1363C29.0905 50.4906 28.4378 51.5931 27.636 51.5931H2.90907C2.10726 51.5931 1.45457 50.4906 1.45457 49.1363V19.655C1.45457 18.3007 2.10726 17.1983 2.90907 17.1983H27.636C28.4378 17.1983 29.0905 18.3007 29.0905 19.655V27.0254H24.7269C22.3207 27.0254 20.3633 30.3314 20.3633 34.3957C20.3633 38.46 22.3207 41.766 24.7269 41.766H29.0905V49.1363ZM30.545 38.0808C30.545 38.7586 30.219 39.3093 29.8177 39.3093H24.7269C23.1225 39.3093 21.8178 37.1057 21.8178 34.3957C21.8178 31.6858 23.1225 29.4821 24.7269 29.4821H29.8177C30.219 29.4821 30.545 30.0327 30.545 30.7105V38.0808Z" fill="#404956"/>
</svg>
