<svg width="33" height="34" viewBox="0 0 33 34" fill="none" xmlns="http://www.w3.org/2000/svg">
<path d="M4.65205 4.96452C10.3483 -0.526408 18.8254 -0.307553 24.0975 4.96452C29.1389 10.006 29.4471 17.9882 25.0221 23.3892L32.8479 31.2159L30.9034 33.1604L23.0768 25.3346C17.6758 29.7596 9.69348 29.4514 4.65205 24.41C-0.620032 19.1379 -0.867929 10.2856 4.65205 4.96452ZM22.1529 6.90907C17.8572 2.6133 10.8924 2.6133 6.59659 6.90907C2.30082 11.2048 2.30082 18.1697 6.59659 22.4654C10.8924 26.7612 17.8572 26.7612 22.1529 22.4654C26.4487 18.1697 26.4487 11.2048 22.1529 6.90907Z" fill="white"/>
</svg>
