<svg width="34" height="40" viewBox="0 0 34 40" fill="none" xmlns="http://www.w3.org/2000/svg">
<path d="M29.5343 27.5222C29.9035 27.3335 30.2316 27.0874 30.4859 26.7429C31.1503 25.8324 30.9945 24.6429 30.8468 23.4863C30.7484 22.7398 30.6499 21.9605 30.8222 21.4355C30.9781 20.9433 31.5031 20.3937 32.0035 19.8687C32.7828 19.0484 33.6605 18.1214 33.6605 16.9484C33.6605 15.7753 32.791 14.832 32.0117 14.0117C31.5113 13.4784 30.9863 12.937 30.8304 12.4449C30.6582 11.9199 30.7566 11.1406 30.855 10.3941C31.0027 9.23743 31.1503 8.04798 30.4941 7.13743C29.8296 6.21868 28.6402 5.9972 27.4917 5.77571C26.7535 5.63626 25.9906 5.49681 25.5558 5.17688C25.121 4.86517 24.7601 4.19251 24.4074 3.53626C23.8742 2.55188 23.2589 1.43626 22.1679 1.07532C21.1179 0.73079 20.0433 1.23938 19.0015 1.73157C18.3042 2.0597 17.5906 2.39603 17.0164 2.39603C16.4421 2.39603 15.7285 2.0597 15.0312 1.73157C13.9894 1.23938 12.9148 0.73079 11.8648 1.07532C10.7656 1.42806 10.1914 2.50267 9.62534 3.53626C9.27261 4.18431 8.90347 4.86517 8.4769 5.17688C8.03394 5.49681 7.27925 5.64446 6.54097 5.77571C5.39253 5.98899 4.20308 6.21868 3.53862 7.13743C2.87417 8.04798 3.03003 9.23743 3.17769 10.3941C3.27612 11.1406 3.37456 11.9199 3.20229 12.4449C3.04644 12.937 2.52144 13.4866 2.02104 14.0117C1.24175 14.832 0.364014 15.7589 0.364014 16.932C0.364014 18.105 1.24995 19.032 2.02104 19.8523C2.52144 20.3855 3.04644 20.9269 3.20229 21.4191C3.37456 21.9441 3.27612 22.7234 3.17769 23.4699C3.03003 24.6265 2.88237 25.8159 3.53862 26.7265C3.79292 27.071 4.12104 27.3253 4.49019 27.5058L0.913623 33.6992C0.782373 33.9288 0.798779 34.2159 0.962842 34.4292C1.1269 34.6425 1.39761 34.7327 1.6519 34.6671L6.93472 33.248L8.35386 38.5308C8.41948 38.7851 8.64097 38.9738 8.90347 39.0148C8.93628 39.0148 8.96089 39.023 8.9855 39.023C9.21519 39.023 9.43667 38.8999 9.55151 38.6949L12.9066 32.8788C13.6203 32.7968 14.3421 32.4605 15.0394 32.1324C15.7367 31.8042 16.4503 31.4679 17.0246 31.4679C17.5988 31.4679 18.3125 31.8042 19.0097 32.1324C19.707 32.4605 20.4289 32.805 21.1425 32.8788L24.4976 38.6949C24.6124 38.8999 24.8339 39.023 25.0636 39.023C25.0882 39.023 25.121 39.023 25.1457 39.0148C25.4081 38.982 25.6214 38.7933 25.6953 38.5308L27.1144 33.248L32.3972 34.6671C32.6515 34.7327 32.9222 34.6425 33.0863 34.4292C33.2503 34.2159 33.2667 33.9288 33.1355 33.6992L29.5343 27.5222ZM9.18237 36.6769L8.00933 32.2882C7.91909 31.9355 7.55815 31.7304 7.20542 31.8206L2.81675 32.9937L5.73706 27.9324C5.99136 27.9898 6.25386 28.039 6.51636 28.0882C7.25464 28.2277 8.01753 28.3671 8.45229 28.687C8.88706 28.9988 9.248 29.6714 9.60073 30.3277C10.0765 31.2054 10.6097 32.1816 11.4957 32.6409L9.18237 36.6769ZM17 30.1636C16.1304 30.1636 15.2773 30.5656 14.457 30.9511C13.6449 31.3366 12.8082 31.7304 12.2585 31.5499C11.6597 31.3531 11.2085 30.5163 10.7656 29.7124C10.339 28.9331 9.90425 28.1292 9.23159 27.637C8.55073 27.1449 7.64018 26.9726 6.76245 26.8085C5.86831 26.6363 4.94136 26.464 4.57222 25.9718C4.21948 25.4878 4.33433 24.5527 4.44917 23.6585C4.56401 22.7644 4.67886 21.8456 4.41636 21.0335C4.16206 20.2624 3.53862 19.598 2.93979 18.9663C2.29995 18.2937 1.6355 17.5964 1.6355 16.9484C1.6355 16.3003 2.29995 15.6031 2.93979 14.9304C3.54683 14.2906 4.17026 13.6343 4.41636 12.8632C4.67886 12.0511 4.56401 11.1324 4.44917 10.2382C4.33433 9.33587 4.21948 8.40892 4.57222 7.92493C4.93315 7.42454 5.86011 7.25227 6.76245 7.08821C7.64018 6.92415 8.55073 6.75188 9.23159 6.2597C9.90425 5.77571 10.339 4.9636 10.7656 4.18431C11.2085 3.3722 11.6597 2.54368 12.2585 2.34681C12.8164 2.16634 13.6531 2.56009 14.457 2.94563C15.2773 3.33118 16.1304 3.73313 17 3.73313C17.8695 3.73313 18.7226 3.33118 19.5429 2.94563C20.355 2.56009 21.1917 2.16634 21.7414 2.34681C22.3402 2.54368 22.7914 3.3804 23.2343 4.18431C23.6609 4.9636 24.0957 5.76751 24.7683 6.2597C25.4492 6.75188 26.3597 6.92415 27.2374 7.08821C28.1316 7.26048 29.0585 7.43274 29.4277 7.92493C29.7804 8.40892 29.6656 9.34407 29.5507 10.2382C29.4359 11.1324 29.321 12.0511 29.5835 12.8632C29.8378 13.6343 30.4613 14.2988 31.0601 14.9304C31.6999 15.6031 32.3644 16.3003 32.3644 16.9484C32.3644 17.5964 31.6999 18.2937 31.0601 18.9663C30.4531 19.6062 29.8296 20.2624 29.5835 21.0335C29.321 21.8456 29.4359 22.7644 29.5507 23.6585C29.6656 24.5609 29.7804 25.4878 29.4277 25.9718C29.0667 26.4722 28.1398 26.6445 27.2374 26.8085C26.3597 26.9726 25.4492 27.1449 24.7683 27.637C24.0957 28.121 23.6609 28.9331 23.2343 29.7124C22.7914 30.5245 22.3402 31.3531 21.7414 31.5499C21.1835 31.7304 20.3468 31.3366 19.5429 30.9511C18.7226 30.5656 17.8695 30.1636 17 30.1636ZM26.7945 31.8206C26.4417 31.7304 26.0808 31.9355 25.9906 32.2882L24.8175 36.6769L22.496 32.6574C23.3738 32.2062 23.8906 31.2628 24.391 30.3441C24.7437 29.696 25.1128 29.0152 25.5394 28.7034C25.9824 28.3835 26.7371 28.2359 27.4753 28.1046C27.7378 28.0554 28.0003 28.0062 28.2546 27.9488L31.1749 33.0101L26.7945 31.8206Z" fill="#404956"/>
</svg>
